<svg fill="none" xmlns="http://www.w3.org/2000/svg" viewBox="0 0 71 30"><path d="M43.74 8c.756 0 1.28.228 1.569.684.29.448.434 1.072.434 1.871v2.87a.694.694 0 01-.19.492.646.646 0 01-.478.19.646.646 0 01-.478-.19.694.694 0 01-.19-.493v-2.869c0-.41-.085-.732-.256-.964-.17-.239-.463-.358-.879-.358-.43 0-.768.127-1.013.38-.245.247-.367.561-.367.942v2.87a.694.694 0 01-.19.492.646.646 0 01-.478.19.646.646 0 01-.478-.19.694.694 0 01-.19-.493V8.796c0-.195.064-.355.19-.482a.628.628 0 01.478-.202c.193 0 .353.067.479.202.126.127.19.287.19.482v.19c.2-.269.46-.5.778-.695A2.052 2.052 0 0143.74 8zM52.529 10.97a.577.577 0 01-.212.437.705.705 0 01-.467.168h-3.673c.09.44.293.788.612 1.042.32.247.68.37 1.08.37.304 0 .541-.026.712-.078.17-.06.304-.12.4-.18.105-.067.175-.112.212-.134.134-.067.26-.1.379-.1.155 0 .289.055.4.167a.54.54 0 01.167.392c0 .202-.104.385-.311.55-.208.171-.486.317-.835.437s-.701.179-1.057.179c-.624 0-1.169-.13-1.636-.392a2.749 2.749 0 01-1.069-1.076 3.203 3.203 0 01-.378-1.558c0-.643.133-1.207.4-1.692.267-.486.62-.856 1.058-1.11A2.69 2.69 0 0149.713 8c.49 0 .95.134 1.38.403a2.99 2.99 0 011.046 1.088c.26.455.39.948.39 1.479zm-2.816-1.737c-.86 0-1.369.407-1.525 1.221h2.916v-.078c-.03-.314-.182-.583-.456-.807a1.438 1.438 0 00-.935-.336zM60.499 8.112a.57.57 0 01.445.202.67.67 0 01.189.493.986.986 0 01-.044.258l-1.703 4.617a.645.645 0 01-.612.437l-.09-.011c-.252-.015-.441-.157-.567-.426l-.946-2.757-.902 2.757c-.126.269-.315.411-.567.426l-.09.011a.699.699 0 01-.378-.112.646.646 0 01-.233-.325l-1.703-4.617a.753.753 0 01-.045-.258c0-.187.06-.348.178-.482a.625.625 0 01.49-.213.63.63 0 01.378.112c.112.067.19.172.234.314l1.202 3.284.88-2.399c.118-.276.322-.414.611-.414.156 0 .275.033.357.1.089.068.163.172.222.314l.857 2.343 1.191-3.228a.537.537 0 01.234-.314.722.722 0 01.412-.112zM43.428 22.492c.104 0 .197.052.278.157.09.097.134.228.134.392 0 .202-.112.374-.334.516-.215.134-.46.202-.735.202-.46 0-.85-.098-1.168-.292-.312-.202-.468-.624-.468-1.266v-3.093h-.512A.61.61 0 0140 18.48a.56.56 0 01.178-.426.602.602 0 01.445-.18h.512v-.716c0-.195.063-.355.19-.482a.664.664 0 01.49-.202c.185 0 .34.067.467.202.126.127.189.287.189.482v.717h.79a.61.61 0 01.623.628c0 .171-.06.317-.178.436a.623.623 0 01-.445.169h-.79v3.037c0 .157.04.272.122.347a.51.51 0 00.334.101c.06 0 .141-.015.245-.045a.66.66 0 01.256-.056zM49.93 17.65c.193 0 .352.064.478.191a.67.67 0 01.19.493v4.74a.694.694 0 01-.19.494.646.646 0 01-.478.19.646.646 0 01-.479-.19.72.72 0 01-.189-.482 2.335 2.335 0 01-.757.56c-.312.15-.642.225-.99.225-.512 0-.976-.131-1.392-.393a2.867 2.867 0 01-.99-1.11c-.238-.47-.356-1.004-.356-1.602 0-.597.118-1.132.356-1.602.237-.479.56-.848.968-1.11a2.468 2.468 0 011.37-.403c.355 0 .69.067 1 .201.312.127.576.292.791.494v-.012c0-.194.063-.355.19-.482a.628.628 0 01.478-.201zm-2.248 4.988c.482 0 .875-.176 1.18-.527.303-.358.456-.807.456-1.345 0-.538-.152-.986-.457-1.345a1.475 1.475 0 00-1.18-.538c-.474 0-.864.18-1.168.538-.304.359-.456.807-.456 1.345 0 .538.148.987.445 1.345.304.351.697.527 1.18.527zM55.128 17.65c.512 0 .976.135 1.391.404.416.262.742.628.98 1.098.244.471.367 1.005.367 1.603a3.58 3.58 0 01-.356 1.614c-.238.47-.564.84-.98 1.11-.408.26-.86.392-1.358.392-.356 0-.693-.071-1.012-.213a2.777 2.777 0 01-.78-.538v.067a.694.694 0 01-.189.493.646.646 0 01-.478.19.646.646 0 01-.668-.683v-7.038c0-.194.063-.355.19-.482a.628.628 0 01.478-.202c.193 0 .352.068.478.202.126.127.19.288.19.482v2.342c.178-.224.426-.418.745-.583.32-.171.653-.257 1.002-.257zm-.167 4.988c.475 0 .864-.18 1.169-.538.304-.359.456-.807.456-1.345 0-.538-.152-.982-.456-1.334-.297-.358-.687-.538-1.17-.538-.481 0-.875.18-1.179.538-.304.352-.456.796-.456 1.334s.152.986.456 1.345c.304.358.698.538 1.18.538zM62.062 17.65c.512 0 .976.135 1.392.404.415.262.741.628.979 1.098.245.471.367 1.005.367 1.603 0 .598-.118 1.136-.356 1.614-.237.47-.564.84-.98 1.11-.407.26-.86.392-1.357.392-.356 0-.694-.071-1.013-.213a2.775 2.775 0 01-.78-.538v.067a.694.694 0 01-.188.493.646.646 0 01-.479.19.646.646 0 01-.668-.683v-7.038c0-.194.063-.355.19-.482a.628.628 0 01.478-.202c.193 0 .352.068.479.202.126.127.189.288.189.482v2.342c.178-.224.427-.418.746-.583a2.084 2.084 0 011.001-.257zm-.167 4.988c.475 0 .865-.18 1.169-.538.304-.359.456-.807.456-1.345 0-.538-.152-.982-.456-1.334-.297-.358-.686-.538-1.169-.538-.482 0-.875.18-1.18.538-.304.352-.456.796-.456 1.334s.152.986.457 1.345c.304.358.697.538 1.18.538zM70.332 17.763c.193 0 .353.067.479.201.126.128.189.288.189.482v4.763c0 .972-.26 1.678-.78 2.119-.519.448-1.212.672-2.08.672-.253 0-.512-.022-.78-.067a2.716 2.716 0 01-.634-.157c-.363-.157-.545-.374-.545-.65 0-.053.01-.112.033-.18a.744.744 0 01.223-.38.589.589 0 01.356-.124.66.66 0 01.211.034l.267.112c.134.052.271.093.412.123.149.038.3.056.457.056.526 0 .912-.116 1.157-.347.252-.224.379-.613.379-1.166v-.112c-.386.486-.987.729-1.803.729a1.94 1.94 0 01-1.024-.27 1.898 1.898 0 01-.69-.761 2.487 2.487 0 01-.245-1.121v-3.273c0-.194.063-.355.189-.482a.628.628 0 01.479-.201c.192 0 .352.067.478.201.126.128.19.288.19.482v2.87c0 .47.1.81.3 1.02.207.201.508.302.901.302.386 0 .683-.112.89-.336.216-.232.323-.56.323-.987v-2.869c0-.194.064-.355.19-.482a.628.628 0 01.478-.201z" fill="#fff"/><path d="M1 24.114V6.371L8.563 2l7.311 4.5M1 24.114L8.563 20M1 24.114L8.563 28l7.311-3.886M23.184 2v9l-7.31-4.5m7.31-4.5L31 6.371v17.743M23.185 2l-7.311 4.5M31 24.114L23.185 28l-7.311-3.886m15.126 0l-7.563-4.42M8.563 20v-9l7.311 4.273M8.563 20l7.311 4.114m0 0l7.563-4.42m-7.563 4.42v-8.84m0 0l7.563 4.42" stroke="#fff" stroke-width="2" stroke-linecap="round" stroke-linejoin="round"/></svg>